<?xml version="1.0" encoding="UTF-8"?>
<svg id="Layer_1" data-name="Layer 1" xmlns="http://www.w3.org/2000/svg" xmlns:xlink="http://www.w3.org/1999/xlink" viewBox="0 0 64.38 45.49">
  <defs>
    <style>
      .cls-1 {
        fill: url(#linear-gradient-2);
      }

      .cls-2 {
        fill: url(#linear-gradient);
      }
    </style>
    <linearGradient id="linear-gradient" x1="20.49" y1="15.56" x2="33.49" y2="15.56" gradientTransform="translate(4.22 -5.7) rotate(13.08)" gradientUnits="userSpaceOnUse">
      <stop offset="0" stop-color="#1f2a7f"/>
      <stop offset=".47" stop-color="#1f2a7f"/>
      <stop offset="1" stop-color="#000"/>
    </linearGradient>
    <linearGradient id="linear-gradient-2" x1="0" y1="22.75" x2="64.38" y2="22.75" gradientTransform="matrix(1,0,0,1,0,0)" xlink:href="#linear-gradient"/>
  </defs>
  <rect class="cls-2" x="21.17" y="9.75" width="11.63" height="11.63" rx="2.4" ry="2.4" transform="translate(-2.82 6.51) rotate(-13.08)"/>
  <path class="cls-1" d="M46.69,18.45c2.51-.91,8.08,2.12,8.21-1.56,0,0,1.31-9.89,1.31-9.89-.8-.38-1.6-.77-2.4-1.15l.1.07c-3.59-.83-5.99-.16-7.3.4-6.43,2.74-10.02,12.69-7.73,24.52-.57.49-7.84,6.51-16.88,3.87-1.03-.3-7.59-2.33-10.69-8.98-3.02-6.5-1.09-13.84,2.48-18.12C18.57,1.86,26.69,1.15,26.48.33c-.13-.52-3.42-.46-6.66.39C11.03,3.03-.13,11.94,0,23.87c.11,9.94,7.99,16.43,8.36,16.73,12.96,10.34,34.48,2.04,44.72-4.09,4.13-2.47,7.16-5.03,9.01-6.73.9-3.01,1.84-5.95,2.29-9.16-5.91,1.39-14.57,6.98-17.69-2.17Z"/>
</svg>
